<?xml version="1.0" encoding="UTF-8" standalone="no"?>
<!DOCTYPE svg PUBLIC "-//W3C//DTD SVG 1.1//EN"
 "http://www.w3.org/Graphics/SVG/1.1/DTD/svg11.dtd">
<!-- Generated by graphviz version 5.0.0 (20220707.1540)
 -->
<!-- Title: dependencies Pages: 1 -->
<svg width="964pt" height="323pt"
 viewBox="0.00 0.00 964.00 322.80" xmlns="http://www.w3.org/2000/svg" xmlns:xlink="http://www.w3.org/1999/xlink">
<g id="graph0" class="graph" transform="scale(1 1) rotate(0) translate(4 318.8)">
<title>dependencies</title>
<polygon fill="white" stroke="transparent" points="-4,4 -4,-318.8 960,-318.8 960,4 -4,4"/>
<text text-anchor="middle" x="478" y="-8.2" font-family="sans-serif" font-size="14.00">dependencies</text>
<g id="clust1" class="cluster">
<title>cluster_AppModule</title>
<polygon fill="none" stroke="black" stroke-dasharray="1,5" points="257,-108.8 257,-306.8 948,-306.8 948,-108.8 257,-108.8"/>
</g>
<g id="clust2" class="cluster">
<title>cluster_AppModule_declarations</title>
<polygon fill="none" stroke="black" points="542,-116.8 542,-168.8 940,-168.8 940,-116.8 542,-116.8"/>
</g>
<g id="clust6" class="cluster">
<title>cluster_AppModule_imports</title>
<polygon fill="none" stroke="black" points="265,-116.8 265,-168.8 534,-168.8 534,-116.8 265,-116.8"/>
</g>
<g id="clust8" class="cluster">
<title>cluster_AppModule_bootstrap</title>
<polygon fill="none" stroke="black" points="549,-246.8 549,-298.8 673,-298.8 673,-246.8 549,-246.8"/>
</g>
<g id="clust22" class="cluster">
<title>cluster_FeaturesModule</title>
<polygon fill="none" stroke="black" stroke-dasharray="1,5" points="8,-32.8 8,-100.8 645,-100.8 645,-32.8 8,-32.8"/>
</g>
<g id="clust23" class="cluster">
<title>cluster_FeaturesModule_declarations</title>
<polygon fill="none" stroke="black" points="16,-40.8 16,-92.8 637,-92.8 637,-40.8 16,-40.8"/>
</g>
<!-- AppComponent -->
<g id="node1" class="node">
<title>AppComponent</title>
<polygon fill="#ffffb3" stroke="black" points="931.94,-160.8 826.06,-160.8 826.06,-124.8 931.94,-124.8 931.94,-160.8"/>
<text text-anchor="middle" x="879" y="-138.6" font-family="Times,serif" font-size="14.00">AppComponent</text>
</g>
<!-- AppModule -->
<g id="node4" class="node">
<title>AppModule</title>
<polygon fill="#8dd3c7" stroke="black" points="652.66,-225.8 649.66,-229.8 628.66,-229.8 625.66,-225.8 569.34,-225.8 569.34,-189.8 652.66,-189.8 652.66,-225.8"/>
<text text-anchor="middle" x="611" y="-203.6" font-family="Times,serif" font-size="14.00">AppModule</text>
</g>
<!-- AppComponent&#45;&gt;AppModule -->
<g id="edge1" class="edge">
<title>AppComponent&#45;&gt;AppModule</title>
<path fill="none" stroke="black" d="M879,-161.08C879,-182.12 879,-213.8 879,-213.8 879,-213.8 662.88,-213.8 662.88,-213.8"/>
<polygon fill="black" stroke="black" points="662.88,-210.3 652.88,-213.8 662.87,-217.3 662.88,-210.3"/>
</g>
<!-- FooterComponent -->
<g id="node2" class="node">
<title>FooterComponent</title>
<polygon fill="#ffffb3" stroke="black" points="807.88,-160.8 690.12,-160.8 690.12,-124.8 807.88,-124.8 807.88,-160.8"/>
<text text-anchor="middle" x="749" y="-138.6" font-family="Times,serif" font-size="14.00">FooterComponent</text>
</g>
<!-- FooterComponent&#45;&gt;AppModule -->
<g id="edge2" class="edge">
<title>FooterComponent&#45;&gt;AppModule</title>
<path fill="none" stroke="black" d="M749,-160.82C749,-178.17 749,-201.8 749,-201.8 749,-201.8 662.78,-201.8 662.78,-201.8"/>
<polygon fill="black" stroke="black" points="662.78,-198.3 652.78,-201.8 662.78,-205.3 662.78,-198.3"/>
</g>
<!-- HeaderComponent -->
<g id="node3" class="node">
<title>HeaderComponent</title>
<polygon fill="#ffffb3" stroke="black" points="671.75,-160.8 550.25,-160.8 550.25,-124.8 671.75,-124.8 671.75,-160.8"/>
<text text-anchor="middle" x="611" y="-138.6" font-family="Times,serif" font-size="14.00">HeaderComponent</text>
</g>
<!-- HeaderComponent&#45;&gt;AppModule -->
<g id="edge3" class="edge">
<title>HeaderComponent&#45;&gt;AppModule</title>
<path fill="none" stroke="black" d="M611,-160.91C611,-160.91 611,-179.79 611,-179.79"/>
<polygon fill="black" stroke="black" points="607.5,-179.79 611,-189.79 614.5,-179.79 607.5,-179.79"/>
</g>
<!-- AppComponent  -->
<g id="node7" class="node">
<title>AppComponent </title>
<polygon fill="#80b1d3" stroke="black" points="665.44,-290.8 556.56,-290.8 556.56,-254.8 665.44,-254.8 665.44,-290.8"/>
<text text-anchor="middle" x="611" y="-268.6" font-family="Times,serif" font-size="14.00">AppComponent </text>
</g>
<!-- AppModule&#45;&gt;AppComponent  -->
<g id="edge6" class="edge">
<title>AppModule&#45;&gt;AppComponent </title>
<path fill="none" stroke="black" stroke-dasharray="1,5" d="M611,-225.91C611,-225.91 611,-244.79 611,-244.79"/>
<polygon fill="black" stroke="black" points="607.5,-244.79 611,-254.79 614.5,-244.79 607.5,-244.79"/>
</g>
<!-- AppRoutingModule -->
<g id="node5" class="node">
<title>AppRoutingModule</title>
<polygon fill="#8dd3c7" stroke="black" points="526.28,-160.8 523.28,-164.8 502.28,-164.8 499.28,-160.8 397.72,-160.8 397.72,-124.8 526.28,-124.8 526.28,-160.8"/>
<text text-anchor="middle" x="462" y="-138.6" font-family="Times,serif" font-size="14.00">AppRoutingModule</text>
</g>
<!-- AppRoutingModule&#45;&gt;AppModule -->
<g id="edge4" class="edge">
<title>AppRoutingModule&#45;&gt;AppModule</title>
<path fill="none" stroke="black" d="M462,-160.82C462,-178.17 462,-201.8 462,-201.8 462,-201.8 559.1,-201.8 559.1,-201.8"/>
<polygon fill="black" stroke="black" points="559.1,-205.3 569.1,-201.8 559.1,-198.3 559.1,-205.3"/>
</g>
<!-- FeaturesModule -->
<g id="node6" class="node">
<title>FeaturesModule</title>
<polygon fill="#8dd3c7" stroke="black" points="379.48,-160.8 376.48,-164.8 355.48,-164.8 352.48,-160.8 272.52,-160.8 272.52,-124.8 379.48,-124.8 379.48,-160.8"/>
<text text-anchor="middle" x="326" y="-138.6" font-family="Times,serif" font-size="14.00">FeaturesModule</text>
</g>
<!-- FeaturesModule&#45;&gt;AppModule -->
<g id="edge5" class="edge">
<title>FeaturesModule&#45;&gt;AppModule</title>
<path fill="none" stroke="black" d="M326,-161.08C326,-182.12 326,-213.8 326,-213.8 326,-213.8 559.25,-213.8 559.25,-213.8"/>
<polygon fill="black" stroke="black" points="559.25,-217.3 569.25,-213.8 559.25,-210.3 559.25,-217.3"/>
</g>
<!-- MallsComponent -->
<g id="node8" class="node">
<title>MallsComponent</title>
<polygon fill="#ffffb3" stroke="black" points="628.72,-84.8 515.28,-84.8 515.28,-48.8 628.72,-48.8 628.72,-84.8"/>
<text text-anchor="middle" x="572" y="-62.6" font-family="Times,serif" font-size="14.00">MallsComponent</text>
</g>
<!-- MallsComponent&#45;&gt;FeaturesModule -->
<g id="edge7" class="edge">
<title>MallsComponent&#45;&gt;FeaturesModule</title>
<path fill="none" stroke="black" d="M520.89,-84.91C520.89,-94.7 520.89,-104.8 520.89,-104.8 520.89,-104.8 360.42,-104.8 360.42,-104.8 360.42,-104.8 360.42,-114.69 360.42,-114.69"/>
<polygon fill="black" stroke="black" points="356.92,-114.69 360.42,-124.69 363.92,-114.69 356.92,-114.69"/>
</g>
<!-- ManageProductsComponent -->
<g id="node9" class="node">
<title>ManageProductsComponent</title>
<polygon fill="#ffffb3" stroke="black" points="497.92,-84.8 322.08,-84.8 322.08,-48.8 497.92,-48.8 497.92,-84.8"/>
<text text-anchor="middle" x="410" y="-62.6" font-family="Times,serif" font-size="14.00">ManageProductsComponent</text>
</g>
<!-- ManageProductsComponent&#45;&gt;FeaturesModule -->
<g id="edge8" class="edge">
<title>ManageProductsComponent&#45;&gt;FeaturesModule</title>
<path fill="none" stroke="black" d="M341.36,-84.81C341.36,-84.81 341.36,-114.65 341.36,-114.65"/>
<polygon fill="black" stroke="black" points="337.86,-114.65 341.36,-124.65 344.86,-114.65 337.86,-114.65"/>
</g>
<!-- SidebarComponent -->
<g id="node10" class="node">
<title>SidebarComponent</title>
<polygon fill="#ffffb3" stroke="black" points="304.1,-84.8 179.9,-84.8 179.9,-48.8 304.1,-48.8 304.1,-84.8"/>
<text text-anchor="middle" x="242" y="-62.6" font-family="Times,serif" font-size="14.00">SidebarComponent</text>
</g>
<!-- SidebarComponent&#45;&gt;FeaturesModule -->
<g id="edge9" class="edge">
<title>SidebarComponent&#45;&gt;FeaturesModule</title>
<path fill="none" stroke="black" d="M288.28,-84.81C288.28,-84.81 288.28,-114.65 288.28,-114.65"/>
<polygon fill="black" stroke="black" points="284.78,-114.65 288.28,-124.65 291.78,-114.65 284.78,-114.65"/>
</g>
<!-- SuggestedComponent -->
<g id="node11" class="node">
<title>SuggestedComponent</title>
<polygon fill="#ffffb3" stroke="black" points="162.38,-84.8 23.62,-84.8 23.62,-48.8 162.38,-48.8 162.38,-84.8"/>
<text text-anchor="middle" x="93" y="-62.6" font-family="Times,serif" font-size="14.00">SuggestedComponent</text>
</g>
<!-- SuggestedComponent&#45;&gt;FeaturesModule -->
<g id="edge10" class="edge">
<title>SuggestedComponent&#45;&gt;FeaturesModule</title>
<path fill="none" stroke="black" d="M93,-84.81C93,-107.29 93,-142.8 93,-142.8 93,-142.8 262.25,-142.8 262.25,-142.8"/>
<polygon fill="black" stroke="black" points="262.25,-146.3 272.25,-142.8 262.25,-139.3 262.25,-146.3"/>
</g>
</g>
</svg>
