<?xml version="1.0" encoding="UTF-8" standalone="no"?>
<!DOCTYPE svg PUBLIC "-//W3C//DTD SVG 1.1//EN"
 "http://www.w3.org/Graphics/SVG/1.1/DTD/svg11.dtd">
<!-- Generated by graphviz version 5.0.0 (20220707.1540)
 -->
<!-- Title: dependencies Pages: 1 -->
<svg width="715pt" height="247pt"
 viewBox="0.00 0.00 715.00 246.80" xmlns="http://www.w3.org/2000/svg" xmlns:xlink="http://www.w3.org/1999/xlink">
<g id="graph0" class="graph" transform="scale(1 1) rotate(0) translate(4 242.8)">
<title>dependencies</title>
<polygon fill="white" stroke="transparent" points="-4,4 -4,-242.8 711,-242.8 711,4 -4,4"/>
<text text-anchor="middle" x="353.5" y="-8.2" font-family="sans-serif" font-size="14.00">dependencies</text>
<g id="clust1" class="cluster">
<title>cluster_AppModule</title>
<polygon fill="none" stroke="black" stroke-dasharray="1,5" points="8,-32.8 8,-230.8 699,-230.8 699,-32.8 8,-32.8"/>
</g>
<g id="clust6" class="cluster">
<title>cluster_AppModule_imports</title>
<polygon fill="none" stroke="black" points="422,-40.8 422,-92.8 691,-92.8 691,-40.8 422,-40.8"/>
</g>
<g id="clust8" class="cluster">
<title>cluster_AppModule_bootstrap</title>
<polygon fill="none" stroke="black" points="291,-170.8 291,-222.8 415,-222.8 415,-170.8 291,-170.8"/>
</g>
<g id="clust2" class="cluster">
<title>cluster_AppModule_declarations</title>
<polygon fill="none" stroke="black" points="16,-40.8 16,-92.8 414,-92.8 414,-40.8 16,-40.8"/>
</g>
<!-- AppComponent -->
<g id="node1" class="node">
<title>AppComponent</title>
<polygon fill="#ffffb3" stroke="black" points="405.94,-84.8 300.06,-84.8 300.06,-48.8 405.94,-48.8 405.94,-84.8"/>
<text text-anchor="middle" x="353" y="-62.6" font-family="Times,serif" font-size="14.00">AppComponent</text>
</g>
<!-- AppModule -->
<g id="node4" class="node">
<title>AppModule</title>
<polygon fill="#8dd3c7" stroke="black" points="394.66,-149.8 391.66,-153.8 370.66,-153.8 367.66,-149.8 311.34,-149.8 311.34,-113.8 394.66,-113.8 394.66,-149.8"/>
<text text-anchor="middle" x="353" y="-127.6" font-family="Times,serif" font-size="14.00">AppModule</text>
</g>
<!-- AppComponent&#45;&gt;AppModule -->
<g id="edge1" class="edge">
<title>AppComponent&#45;&gt;AppModule</title>
<path fill="none" stroke="black" d="M353,-84.91C353,-84.91 353,-103.79 353,-103.79"/>
<polygon fill="black" stroke="black" points="349.5,-103.79 353,-113.79 356.5,-103.79 349.5,-103.79"/>
</g>
<!-- FooterComponent -->
<g id="node2" class="node">
<title>FooterComponent</title>
<polygon fill="#ffffb3" stroke="black" points="281.88,-84.8 164.12,-84.8 164.12,-48.8 281.88,-48.8 281.88,-84.8"/>
<text text-anchor="middle" x="223" y="-62.6" font-family="Times,serif" font-size="14.00">FooterComponent</text>
</g>
<!-- FooterComponent&#45;&gt;AppModule -->
<g id="edge2" class="edge">
<title>FooterComponent&#45;&gt;AppModule</title>
<path fill="none" stroke="black" d="M223,-84.82C223,-102.17 223,-125.8 223,-125.8 223,-125.8 301.15,-125.8 301.15,-125.8"/>
<polygon fill="black" stroke="black" points="301.15,-129.3 311.15,-125.8 301.15,-122.3 301.15,-129.3"/>
</g>
<!-- HeaderComponent -->
<g id="node3" class="node">
<title>HeaderComponent</title>
<polygon fill="#ffffb3" stroke="black" points="145.75,-84.8 24.25,-84.8 24.25,-48.8 145.75,-48.8 145.75,-84.8"/>
<text text-anchor="middle" x="85" y="-62.6" font-family="Times,serif" font-size="14.00">HeaderComponent</text>
</g>
<!-- HeaderComponent&#45;&gt;AppModule -->
<g id="edge3" class="edge">
<title>HeaderComponent&#45;&gt;AppModule</title>
<path fill="none" stroke="black" d="M85,-85.08C85,-106.12 85,-137.8 85,-137.8 85,-137.8 301.12,-137.8 301.12,-137.8"/>
<polygon fill="black" stroke="black" points="301.13,-141.3 311.12,-137.8 301.12,-134.3 301.13,-141.3"/>
</g>
<!-- AppComponent  -->
<g id="node7" class="node">
<title>AppComponent </title>
<polygon fill="#80b1d3" stroke="black" points="407.44,-214.8 298.56,-214.8 298.56,-178.8 407.44,-178.8 407.44,-214.8"/>
<text text-anchor="middle" x="353" y="-192.6" font-family="Times,serif" font-size="14.00">AppComponent </text>
</g>
<!-- AppModule&#45;&gt;AppComponent  -->
<g id="edge6" class="edge">
<title>AppModule&#45;&gt;AppComponent </title>
<path fill="none" stroke="black" stroke-dasharray="1,5" d="M353,-149.91C353,-149.91 353,-168.79 353,-168.79"/>
<polygon fill="black" stroke="black" points="349.5,-168.79 353,-178.79 356.5,-168.79 349.5,-168.79"/>
</g>
<!-- AppRoutingModule -->
<g id="node5" class="node">
<title>AppRoutingModule</title>
<polygon fill="#8dd3c7" stroke="black" points="683.28,-84.8 680.28,-88.8 659.28,-88.8 656.28,-84.8 554.72,-84.8 554.72,-48.8 683.28,-48.8 683.28,-84.8"/>
<text text-anchor="middle" x="619" y="-62.6" font-family="Times,serif" font-size="14.00">AppRoutingModule</text>
</g>
<!-- AppRoutingModule&#45;&gt;AppModule -->
<g id="edge4" class="edge">
<title>AppRoutingModule&#45;&gt;AppModule</title>
<path fill="none" stroke="black" d="M619,-85.08C619,-106.12 619,-137.8 619,-137.8 619,-137.8 404.86,-137.8 404.86,-137.8"/>
<polygon fill="black" stroke="black" points="404.86,-134.3 394.86,-137.8 404.86,-141.3 404.86,-134.3"/>
</g>
<!-- FeaturesModule -->
<g id="node6" class="node">
<title>FeaturesModule</title>
<polygon fill="#8dd3c7" stroke="black" points="536.48,-84.8 533.48,-88.8 512.48,-88.8 509.48,-84.8 429.52,-84.8 429.52,-48.8 536.48,-48.8 536.48,-84.8"/>
<text text-anchor="middle" x="483" y="-62.6" font-family="Times,serif" font-size="14.00">FeaturesModule</text>
</g>
<!-- FeaturesModule&#45;&gt;AppModule -->
<g id="edge5" class="edge">
<title>FeaturesModule&#45;&gt;AppModule</title>
<path fill="none" stroke="black" d="M483,-84.82C483,-102.17 483,-125.8 483,-125.8 483,-125.8 404.85,-125.8 404.85,-125.8"/>
<polygon fill="black" stroke="black" points="404.85,-122.3 394.85,-125.8 404.85,-129.3 404.85,-122.3"/>
</g>
</g>
</svg>
