<?xml version="1.0" encoding="UTF-8" standalone="no"?>
<!DOCTYPE svg PUBLIC "-//W3C//DTD SVG 1.1//EN"
 "http://www.w3.org/Graphics/SVG/1.1/DTD/svg11.dtd">
<!-- Generated by graphviz version 5.0.0 (20220707.1540)
 -->
<!-- Title: dependencies Pages: 1 -->
<svg width="745pt" height="174pt"
 viewBox="0.00 0.00 745.00 173.80" xmlns="http://www.w3.org/2000/svg" xmlns:xlink="http://www.w3.org/1999/xlink">
<g id="graph0" class="graph" transform="scale(1 1) rotate(0) translate(4 169.8)">
<title>dependencies</title>
<polygon fill="white" stroke="transparent" points="-4,4 -4,-169.8 741,-169.8 741,4 -4,4"/>
<text text-anchor="middle" x="368.5" y="-8.2" font-family="sans-serif" font-size="14.00">dependencies</text>
<g id="clust1" class="cluster">
<title>cluster_FeaturesModule</title>
<polygon fill="none" stroke="black" stroke-dasharray="1,5" points="8,-32.8 8,-157.8 729,-157.8 729,-32.8 8,-32.8"/>
</g>
<g id="clust2" class="cluster">
<title>cluster_FeaturesModule_declarations</title>
<polygon fill="none" stroke="black" points="168,-40.8 168,-92.8 721,-92.8 721,-40.8 168,-40.8"/>
</g>
<g id="clust7" class="cluster">
<title>cluster_FeaturesModule_imports</title>
<polygon fill="none" stroke="black" points="16,-40.8 16,-92.8 160,-92.8 160,-40.8 16,-40.8"/>
</g>
<!-- HomeComponent -->
<g id="node1" class="node">
<title>HomeComponent</title>
<polygon fill="#ffffb3" stroke="black" points="712.55,-84.8 597.45,-84.8 597.45,-48.8 712.55,-48.8 712.55,-84.8"/>
<text text-anchor="middle" x="655" y="-62.6" font-family="Times,serif" font-size="14.00">HomeComponent</text>
</g>
<!-- FeaturesModule -->
<g id="node5" class="node">
<title>FeaturesModule</title>
<polygon fill="#8dd3c7" stroke="black" points="436.48,-149.8 433.48,-153.8 412.48,-153.8 409.48,-149.8 329.52,-149.8 329.52,-113.8 436.48,-113.8 436.48,-149.8"/>
<text text-anchor="middle" x="383" y="-127.6" font-family="Times,serif" font-size="14.00">FeaturesModule</text>
</g>
<!-- HomeComponent&#45;&gt;FeaturesModule -->
<g id="edge1" class="edge">
<title>HomeComponent&#45;&gt;FeaturesModule</title>
<path fill="none" stroke="black" d="M655,-85.08C655,-106.12 655,-137.8 655,-137.8 655,-137.8 446.74,-137.8 446.74,-137.8"/>
<polygon fill="black" stroke="black" points="446.74,-134.3 436.74,-137.8 446.74,-141.3 446.74,-134.3"/>
</g>
<!-- MallsComponent -->
<g id="node2" class="node">
<title>MallsComponent</title>
<polygon fill="#ffffb3" stroke="black" points="579.72,-84.8 466.28,-84.8 466.28,-48.8 579.72,-48.8 579.72,-84.8"/>
<text text-anchor="middle" x="523" y="-62.6" font-family="Times,serif" font-size="14.00">MallsComponent</text>
</g>
<!-- MallsComponent&#45;&gt;FeaturesModule -->
<g id="edge2" class="edge">
<title>MallsComponent&#45;&gt;FeaturesModule</title>
<path fill="none" stroke="black" d="M523,-84.82C523,-102.17 523,-125.8 523,-125.8 523,-125.8 446.73,-125.8 446.73,-125.8"/>
<polygon fill="black" stroke="black" points="446.73,-122.3 436.73,-125.8 446.73,-129.3 446.73,-122.3"/>
</g>
<!-- ProductsComponent -->
<g id="node3" class="node">
<title>ProductsComponent</title>
<polygon fill="#ffffb3" stroke="black" points="448.33,-84.8 317.67,-84.8 317.67,-48.8 448.33,-48.8 448.33,-84.8"/>
<text text-anchor="middle" x="383" y="-62.6" font-family="Times,serif" font-size="14.00">ProductsComponent</text>
</g>
<!-- ProductsComponent&#45;&gt;FeaturesModule -->
<g id="edge3" class="edge">
<title>ProductsComponent&#45;&gt;FeaturesModule</title>
<path fill="none" stroke="black" d="M383,-84.91C383,-84.91 383,-103.79 383,-103.79"/>
<polygon fill="black" stroke="black" points="379.5,-103.79 383,-113.79 386.5,-103.79 379.5,-103.79"/>
</g>
<!-- SidebarComponent -->
<g id="node4" class="node">
<title>SidebarComponent</title>
<polygon fill="#ffffb3" stroke="black" points="300.1,-84.8 175.9,-84.8 175.9,-48.8 300.1,-48.8 300.1,-84.8"/>
<text text-anchor="middle" x="238" y="-62.6" font-family="Times,serif" font-size="14.00">SidebarComponent</text>
</g>
<!-- SidebarComponent&#45;&gt;FeaturesModule -->
<g id="edge4" class="edge">
<title>SidebarComponent&#45;&gt;FeaturesModule</title>
<path fill="none" stroke="black" d="M238,-84.82C238,-102.17 238,-125.8 238,-125.8 238,-125.8 319.42,-125.8 319.42,-125.8"/>
<polygon fill="black" stroke="black" points="319.42,-129.3 329.42,-125.8 319.42,-122.3 319.42,-129.3"/>
</g>
<!-- AppRoutingModule -->
<g id="node6" class="node">
<title>AppRoutingModule</title>
<polygon fill="#8dd3c7" stroke="black" points="152.28,-84.8 149.28,-88.8 128.28,-88.8 125.28,-84.8 23.72,-84.8 23.72,-48.8 152.28,-48.8 152.28,-84.8"/>
<text text-anchor="middle" x="88" y="-62.6" font-family="Times,serif" font-size="14.00">AppRoutingModule</text>
</g>
<!-- AppRoutingModule&#45;&gt;FeaturesModule -->
<g id="edge5" class="edge">
<title>AppRoutingModule&#45;&gt;FeaturesModule</title>
<path fill="none" stroke="black" d="M88,-85.08C88,-106.12 88,-137.8 88,-137.8 88,-137.8 319.24,-137.8 319.24,-137.8"/>
<polygon fill="black" stroke="black" points="319.24,-141.3 329.24,-137.8 319.24,-134.3 319.24,-141.3"/>
</g>
</g>
</svg>
