<?xml version="1.0" encoding="UTF-8" standalone="no"?>
<!DOCTYPE svg PUBLIC "-//W3C//DTD SVG 1.1//EN"
 "http://www.w3.org/Graphics/SVG/1.1/DTD/svg11.dtd">
<!-- Generated by graphviz version 5.0.0 (20220707.1540)
 -->
<!-- Title: dependencies Pages: 1 -->
<svg width="661pt" height="174pt"
 viewBox="0.00 0.00 661.00 173.80" xmlns="http://www.w3.org/2000/svg" xmlns:xlink="http://www.w3.org/1999/xlink">
<g id="graph0" class="graph" transform="scale(1 1) rotate(0) translate(4 169.8)">
<title>dependencies</title>
<polygon fill="white" stroke="transparent" points="-4,4 -4,-169.8 657,-169.8 657,4 -4,4"/>
<text text-anchor="middle" x="326.5" y="-8.2" font-family="sans-serif" font-size="14.00">dependencies</text>
<g id="clust1" class="cluster">
<title>cluster_FeaturesModule</title>
<polygon fill="none" stroke="black" stroke-dasharray="1,5" points="8,-32.8 8,-157.8 645,-157.8 645,-32.8 8,-32.8"/>
</g>
<g id="clust2" class="cluster">
<title>cluster_FeaturesModule_declarations</title>
<polygon fill="none" stroke="black" points="16,-40.8 16,-92.8 637,-92.8 637,-40.8 16,-40.8"/>
</g>
<!-- MallsComponent -->
<g id="node1" class="node">
<title>MallsComponent</title>
<polygon fill="#ffffb3" stroke="black" points="628.72,-84.8 515.28,-84.8 515.28,-48.8 628.72,-48.8 628.72,-84.8"/>
<text text-anchor="middle" x="572" y="-62.6" font-family="Times,serif" font-size="14.00">MallsComponent</text>
</g>
<!-- FeaturesModule -->
<g id="node5" class="node">
<title>FeaturesModule</title>
<polygon fill="#8dd3c7" stroke="black" points="379.48,-149.8 376.48,-153.8 355.48,-153.8 352.48,-149.8 272.52,-149.8 272.52,-113.8 379.48,-113.8 379.48,-149.8"/>
<text text-anchor="middle" x="326" y="-127.6" font-family="Times,serif" font-size="14.00">FeaturesModule</text>
</g>
<!-- MallsComponent&#45;&gt;FeaturesModule -->
<g id="edge1" class="edge">
<title>MallsComponent&#45;&gt;FeaturesModule</title>
<path fill="none" stroke="black" d="M572,-84.91C572,-104.14 572,-131.8 572,-131.8 572,-131.8 389.68,-131.8 389.68,-131.8"/>
<polygon fill="black" stroke="black" points="389.68,-128.3 379.68,-131.8 389.68,-135.3 389.68,-128.3"/>
</g>
<!-- ManageProductsComponent -->
<g id="node2" class="node">
<title>ManageProductsComponent</title>
<polygon fill="#ffffb3" stroke="black" points="497.92,-84.8 322.08,-84.8 322.08,-48.8 497.92,-48.8 497.92,-84.8"/>
<text text-anchor="middle" x="410" y="-62.6" font-family="Times,serif" font-size="14.00">ManageProductsComponent</text>
</g>
<!-- ManageProductsComponent&#45;&gt;FeaturesModule -->
<g id="edge2" class="edge">
<title>ManageProductsComponent&#45;&gt;FeaturesModule</title>
<path fill="none" stroke="black" d="M350.89,-84.91C350.89,-84.91 350.89,-103.79 350.89,-103.79"/>
<polygon fill="black" stroke="black" points="347.39,-103.79 350.89,-113.79 354.39,-103.79 347.39,-103.79"/>
</g>
<!-- SidebarComponent -->
<g id="node3" class="node">
<title>SidebarComponent</title>
<polygon fill="#ffffb3" stroke="black" points="304.1,-84.8 179.9,-84.8 179.9,-48.8 304.1,-48.8 304.1,-84.8"/>
<text text-anchor="middle" x="242" y="-62.6" font-family="Times,serif" font-size="14.00">SidebarComponent</text>
</g>
<!-- SidebarComponent&#45;&gt;FeaturesModule -->
<g id="edge3" class="edge">
<title>SidebarComponent&#45;&gt;FeaturesModule</title>
<path fill="none" stroke="black" d="M288.28,-84.91C288.28,-84.91 288.28,-103.79 288.28,-103.79"/>
<polygon fill="black" stroke="black" points="284.78,-103.79 288.28,-113.79 291.78,-103.79 284.78,-103.79"/>
</g>
<!-- SuggestedComponent -->
<g id="node4" class="node">
<title>SuggestedComponent</title>
<polygon fill="#ffffb3" stroke="black" points="162.38,-84.8 23.62,-84.8 23.62,-48.8 162.38,-48.8 162.38,-84.8"/>
<text text-anchor="middle" x="93" y="-62.6" font-family="Times,serif" font-size="14.00">SuggestedComponent</text>
</g>
<!-- SuggestedComponent&#45;&gt;FeaturesModule -->
<g id="edge4" class="edge">
<title>SuggestedComponent&#45;&gt;FeaturesModule</title>
<path fill="none" stroke="black" d="M93,-84.91C93,-104.14 93,-131.8 93,-131.8 93,-131.8 262.25,-131.8 262.25,-131.8"/>
<polygon fill="black" stroke="black" points="262.25,-135.3 272.25,-131.8 262.25,-128.3 262.25,-135.3"/>
</g>
</g>
</svg>
